<mxfile host="app.diagrams.net" modified="2021-12-06T15:52:39.473Z" agent="5.0 (X11; Linux x86_64) AppleWebKit/537.36 (KHTML, like Gecko) Chrome/91.0.4472.114 Safari/537.36" etag="-4dSl6VwVjHLhw4dMO_1" version="15.9.1" type="github">
  <diagram id="1Yt3TSJx8MZHrbTgnYvS" name="Page-1">
    <mxGraphModel dx="2584" dy="2055" grid="1" gridSize="10" guides="1" tooltips="1" connect="1" arrows="1" fold="1" page="1" pageScale="1" pageWidth="850" pageHeight="1100" math="0" shadow="0">
      <root>
        <mxCell id="0" />
        <mxCell id="1" parent="0" />
        <mxCell id="39T05aaLQmFhzWcyVznc-38" value="" style="rounded=0;whiteSpace=wrap;html=1;fillColor=#dae8fc;strokeColor=#6c8ebf;" parent="1" vertex="1">
          <mxGeometry x="-75" y="300" width="50" height="680" as="geometry" />
        </mxCell>
        <mxCell id="rFCh-DtLaKoqMe8977WI-1" value="Customer" style="swimlane;fontStyle=1;align=center;verticalAlign=top;childLayout=stackLayout;horizontal=1;startSize=26;horizontalStack=0;resizeParent=1;resizeParentMax=0;resizeLast=0;collapsible=1;marginBottom=0;" parent="1" vertex="1">
          <mxGeometry x="-760" y="320" width="210" height="280" as="geometry">
            <mxRectangle x="120" y="-150" width="90" height="26" as="alternateBounds" />
          </mxGeometry>
        </mxCell>
        <mxCell id="rFCh-DtLaKoqMe8977WI-2" value="- id: long&#xa;" style="text;strokeColor=none;fillColor=none;align=left;verticalAlign=top;spacingLeft=4;spacingRight=4;overflow=hidden;rotatable=0;points=[[0,0.5],[1,0.5]];portConstraint=eastwest;" parent="rFCh-DtLaKoqMe8977WI-1" vertex="1">
          <mxGeometry y="26" width="210" height="26" as="geometry" />
        </mxCell>
        <mxCell id="rFCh-DtLaKoqMe8977WI-13" value="- lastname: string&#xa;&#xa;&#xa;" style="text;strokeColor=none;fillColor=none;align=left;verticalAlign=top;spacingLeft=4;spacingRight=4;overflow=hidden;rotatable=0;points=[[0,0.5],[1,0.5]];portConstraint=eastwest;" parent="rFCh-DtLaKoqMe8977WI-1" vertex="1">
          <mxGeometry y="52" width="210" height="26" as="geometry" />
        </mxCell>
        <mxCell id="rFCh-DtLaKoqMe8977WI-11" value="- firstname: string&#xa;&#xa;&#xa;" style="text;strokeColor=none;fillColor=none;align=left;verticalAlign=top;spacingLeft=4;spacingRight=4;overflow=hidden;rotatable=0;points=[[0,0.5],[1,0.5]];portConstraint=eastwest;" parent="rFCh-DtLaKoqMe8977WI-1" vertex="1">
          <mxGeometry y="78" width="210" height="26" as="geometry" />
        </mxCell>
        <mxCell id="rFCh-DtLaKoqMe8977WI-15" value="- adress: AdressVO" style="text;strokeColor=none;fillColor=none;align=left;verticalAlign=top;spacingLeft=4;spacingRight=4;overflow=hidden;rotatable=0;points=[[0,0.5],[1,0.5]];portConstraint=eastwest;" parent="rFCh-DtLaKoqMe8977WI-1" vertex="1">
          <mxGeometry y="104" width="210" height="26" as="geometry" />
        </mxCell>
        <mxCell id="rFCh-DtLaKoqMe8977WI-12" value="- phonenumber: PhonenumberVO&#xa;&#xa;&#xa;" style="text;strokeColor=none;fillColor=none;align=left;verticalAlign=top;spacingLeft=4;spacingRight=4;overflow=hidden;rotatable=0;points=[[0,0.5],[1,0.5]];portConstraint=eastwest;" parent="rFCh-DtLaKoqMe8977WI-1" vertex="1">
          <mxGeometry y="130" width="210" height="26" as="geometry" />
        </mxCell>
        <mxCell id="rFCh-DtLaKoqMe8977WI-14" value="- order: Order&#xa;&#xa;&#xa;" style="text;strokeColor=none;fillColor=none;align=left;verticalAlign=top;spacingLeft=4;spacingRight=4;overflow=hidden;rotatable=0;points=[[0,0.5],[1,0.5]];portConstraint=eastwest;" parent="rFCh-DtLaKoqMe8977WI-1" vertex="1">
          <mxGeometry y="156" width="210" height="26" as="geometry" />
        </mxCell>
        <mxCell id="rFCh-DtLaKoqMe8977WI-3" value="" style="line;strokeWidth=1;fillColor=none;align=left;verticalAlign=middle;spacingTop=-1;spacingLeft=3;spacingRight=3;rotatable=0;labelPosition=right;points=[];portConstraint=eastwest;" parent="rFCh-DtLaKoqMe8977WI-1" vertex="1">
          <mxGeometry y="182" width="210" height="8" as="geometry" />
        </mxCell>
        <mxCell id="rFCh-DtLaKoqMe8977WI-4" value="+ getAllOrders(): List&lt;Order&gt;&#xa;" style="text;strokeColor=none;fillColor=none;align=left;verticalAlign=top;spacingLeft=4;spacingRight=4;overflow=hidden;rotatable=0;points=[[0,0.5],[1,0.5]];portConstraint=eastwest;" parent="rFCh-DtLaKoqMe8977WI-1" vertex="1">
          <mxGeometry y="190" width="210" height="30" as="geometry" />
        </mxCell>
        <mxCell id="dByqSOkURWBwsy8EsZHN-36" value="+ getActiveOrders(): List&lt;Order&gt;" style="text;strokeColor=none;fillColor=none;align=left;verticalAlign=top;spacingLeft=4;spacingRight=4;overflow=hidden;rotatable=0;points=[[0,0.5],[1,0.5]];portConstraint=eastwest;" parent="rFCh-DtLaKoqMe8977WI-1" vertex="1">
          <mxGeometry y="220" width="210" height="30" as="geometry" />
        </mxCell>
        <mxCell id="dByqSOkURWBwsy8EsZHN-2" value="+ getActiveOrders(): List&lt;Order&gt;" style="text;strokeColor=none;fillColor=none;align=left;verticalAlign=top;spacingLeft=4;spacingRight=4;overflow=hidden;rotatable=0;points=[[0,0.5],[1,0.5]];portConstraint=eastwest;" parent="rFCh-DtLaKoqMe8977WI-1" vertex="1">
          <mxGeometry y="250" width="210" height="30" as="geometry" />
        </mxCell>
        <mxCell id="rFCh-DtLaKoqMe8977WI-27" value="Order" style="swimlane;fontStyle=1;align=center;verticalAlign=top;childLayout=stackLayout;horizontal=1;startSize=26;horizontalStack=0;resizeParent=1;resizeParentMax=0;resizeLast=0;collapsible=1;marginBottom=0;" parent="1" vertex="1">
          <mxGeometry x="-470" y="626" width="160" height="164" as="geometry" />
        </mxCell>
        <mxCell id="rFCh-DtLaKoqMe8977WI-33" value="- id: long&#xa;" style="text;strokeColor=none;fillColor=none;align=left;verticalAlign=top;spacingLeft=4;spacingRight=4;overflow=hidden;rotatable=0;points=[[0,0.5],[1,0.5]];portConstraint=eastwest;" parent="rFCh-DtLaKoqMe8977WI-27" vertex="1">
          <mxGeometry y="26" width="160" height="26" as="geometry" />
        </mxCell>
        <mxCell id="rFCh-DtLaKoqMe8977WI-28" value="- title: string" style="text;strokeColor=none;fillColor=none;align=left;verticalAlign=top;spacingLeft=4;spacingRight=4;overflow=hidden;rotatable=0;points=[[0,0.5],[1,0.5]];portConstraint=eastwest;" parent="rFCh-DtLaKoqMe8977WI-27" vertex="1">
          <mxGeometry y="52" width="160" height="26" as="geometry" />
        </mxCell>
        <mxCell id="rFCh-DtLaKoqMe8977WI-31" value="- date: Date" style="text;strokeColor=none;fillColor=none;align=left;verticalAlign=top;spacingLeft=4;spacingRight=4;overflow=hidden;rotatable=0;points=[[0,0.5],[1,0.5]];portConstraint=eastwest;" parent="rFCh-DtLaKoqMe8977WI-27" vertex="1">
          <mxGeometry y="78" width="160" height="26" as="geometry" />
        </mxCell>
        <mxCell id="rFCh-DtLaKoqMe8977WI-32" value="- description: string" style="text;strokeColor=none;fillColor=none;align=left;verticalAlign=top;spacingLeft=4;spacingRight=4;overflow=hidden;rotatable=0;points=[[0,0.5],[1,0.5]];portConstraint=eastwest;" parent="rFCh-DtLaKoqMe8977WI-27" vertex="1">
          <mxGeometry y="104" width="160" height="26" as="geometry" />
        </mxCell>
        <mxCell id="rFCh-DtLaKoqMe8977WI-29" value="" style="line;strokeWidth=1;fillColor=none;align=left;verticalAlign=middle;spacingTop=-1;spacingLeft=3;spacingRight=3;rotatable=0;labelPosition=right;points=[];portConstraint=eastwest;" parent="rFCh-DtLaKoqMe8977WI-27" vertex="1">
          <mxGeometry y="130" width="160" height="8" as="geometry" />
        </mxCell>
        <mxCell id="rFCh-DtLaKoqMe8977WI-30" value="+ complete: Boolean" style="text;strokeColor=none;fillColor=none;align=left;verticalAlign=top;spacingLeft=4;spacingRight=4;overflow=hidden;rotatable=0;points=[[0,0.5],[1,0.5]];portConstraint=eastwest;" parent="rFCh-DtLaKoqMe8977WI-27" vertex="1">
          <mxGeometry y="138" width="160" height="26" as="geometry" />
        </mxCell>
        <mxCell id="rFCh-DtLaKoqMe8977WI-35" value="&lt;&lt; enumeration &gt;&gt;&#xa;Status" style="swimlane;fontStyle=1;childLayout=stackLayout;horizontal=1;startSize=26;fillColor=none;horizontalStack=0;resizeParent=1;resizeParentMax=0;resizeLast=0;collapsible=1;marginBottom=0;verticalAlign=bottom;fontSize=11;" parent="1" vertex="1">
          <mxGeometry x="-260" y="656" width="150" height="130" as="geometry" />
        </mxCell>
        <mxCell id="rFCh-DtLaKoqMe8977WI-37" value="OPEN" style="text;strokeColor=none;fillColor=none;align=left;verticalAlign=top;spacingLeft=4;spacingRight=4;overflow=hidden;rotatable=0;points=[[0,0.5],[1,0.5]];portConstraint=eastwest;" parent="rFCh-DtLaKoqMe8977WI-35" vertex="1">
          <mxGeometry y="26" width="150" height="26" as="geometry" />
        </mxCell>
        <mxCell id="rFCh-DtLaKoqMe8977WI-36" value="IN_PROGESS" style="text;strokeColor=none;fillColor=none;align=left;verticalAlign=top;spacingLeft=4;spacingRight=4;overflow=hidden;rotatable=0;points=[[0,0.5],[1,0.5]];portConstraint=eastwest;" parent="rFCh-DtLaKoqMe8977WI-35" vertex="1">
          <mxGeometry y="52" width="150" height="26" as="geometry" />
        </mxCell>
        <mxCell id="rFCh-DtLaKoqMe8977WI-38" value="FULLFILLED" style="text;strokeColor=none;fillColor=none;align=left;verticalAlign=top;spacingLeft=4;spacingRight=4;overflow=hidden;rotatable=0;points=[[0,0.5],[1,0.5]];portConstraint=eastwest;" parent="rFCh-DtLaKoqMe8977WI-35" vertex="1">
          <mxGeometry y="78" width="150" height="26" as="geometry" />
        </mxCell>
        <mxCell id="rFCh-DtLaKoqMe8977WI-46" value="DISCARDED" style="text;strokeColor=none;fillColor=none;align=left;verticalAlign=top;spacingLeft=4;spacingRight=4;overflow=hidden;rotatable=0;points=[[0,0.5],[1,0.5]];portConstraint=eastwest;" parent="rFCh-DtLaKoqMe8977WI-35" vertex="1">
          <mxGeometry y="104" width="150" height="26" as="geometry" />
        </mxCell>
        <mxCell id="6I47xcndarnHF87XZSYr-6" value="Provider" style="swimlane;fontStyle=1;align=center;verticalAlign=top;childLayout=stackLayout;horizontal=1;startSize=26;horizontalStack=0;resizeParent=1;resizeParentMax=0;resizeLast=0;collapsible=1;marginBottom=0;fontSize=11;" parent="1" vertex="1">
          <mxGeometry x="-710" y="760" width="160" height="208" as="geometry" />
        </mxCell>
        <mxCell id="dByqSOkURWBwsy8EsZHN-4" value="- id: long" style="text;strokeColor=none;fillColor=none;align=left;verticalAlign=top;spacingLeft=4;spacingRight=4;overflow=hidden;rotatable=0;points=[[0,0.5],[1,0.5]];portConstraint=eastwest;fontSize=11;" parent="6I47xcndarnHF87XZSYr-6" vertex="1">
          <mxGeometry y="26" width="160" height="26" as="geometry" />
        </mxCell>
        <mxCell id="dByqSOkURWBwsy8EsZHN-6" value="- name: String" style="text;strokeColor=none;fillColor=none;align=left;verticalAlign=top;spacingLeft=4;spacingRight=4;overflow=hidden;rotatable=0;points=[[0,0.5],[1,0.5]];portConstraint=eastwest;fontSize=11;" parent="6I47xcndarnHF87XZSYr-6" vertex="1">
          <mxGeometry y="52" width="160" height="26" as="geometry" />
        </mxCell>
        <mxCell id="6I47xcndarnHF87XZSYr-7" value="- competence: String" style="text;strokeColor=none;fillColor=none;align=left;verticalAlign=top;spacingLeft=4;spacingRight=4;overflow=hidden;rotatable=0;points=[[0,0.5],[1,0.5]];portConstraint=eastwest;fontSize=11;" parent="6I47xcndarnHF87XZSYr-6" vertex="1">
          <mxGeometry y="78" width="160" height="26" as="geometry" />
        </mxCell>
        <mxCell id="RFr_Boc9i2en51YFCuRV-12" value="- street: String&#xa;" style="text;strokeColor=none;fillColor=none;align=left;verticalAlign=top;spacingLeft=4;spacingRight=4;overflow=hidden;rotatable=0;points=[[0,0.5],[1,0.5]];portConstraint=eastwest;fontSize=11;" parent="6I47xcndarnHF87XZSYr-6" vertex="1">
          <mxGeometry y="104" width="160" height="26" as="geometry" />
        </mxCell>
        <mxCell id="RFr_Boc9i2en51YFCuRV-13" value="- postalCode: String" style="text;strokeColor=none;fillColor=none;align=left;verticalAlign=top;spacingLeft=4;spacingRight=4;overflow=hidden;rotatable=0;points=[[0,0.5],[1,0.5]];portConstraint=eastwest;fontSize=11;" parent="6I47xcndarnHF87XZSYr-6" vertex="1">
          <mxGeometry y="130" width="160" height="26" as="geometry" />
        </mxCell>
        <mxCell id="RFr_Boc9i2en51YFCuRV-14" value="- city: String" style="text;strokeColor=none;fillColor=none;align=left;verticalAlign=top;spacingLeft=4;spacingRight=4;overflow=hidden;rotatable=0;points=[[0,0.5],[1,0.5]];portConstraint=eastwest;fontSize=11;" parent="6I47xcndarnHF87XZSYr-6" vertex="1">
          <mxGeometry y="156" width="160" height="26" as="geometry" />
        </mxCell>
        <mxCell id="RFr_Boc9i2en51YFCuRV-15" value="- country: String" style="text;strokeColor=none;fillColor=none;align=left;verticalAlign=top;spacingLeft=4;spacingRight=4;overflow=hidden;rotatable=0;points=[[0,0.5],[1,0.5]];portConstraint=eastwest;fontSize=11;" parent="6I47xcndarnHF87XZSYr-6" vertex="1">
          <mxGeometry y="182" width="160" height="26" as="geometry" />
        </mxCell>
        <mxCell id="39T05aaLQmFhzWcyVznc-1" value="CustomerService" style="swimlane;fontStyle=1;align=center;verticalAlign=top;childLayout=stackLayout;horizontal=1;startSize=26;horizontalStack=0;resizeParent=1;resizeParentMax=0;resizeLast=0;collapsible=1;marginBottom=0;" parent="1" vertex="1">
          <mxGeometry x="40" y="558" width="215" height="138" as="geometry" />
        </mxCell>
        <mxCell id="39T05aaLQmFhzWcyVznc-2" value="- customerRepository" style="text;strokeColor=none;fillColor=none;align=left;verticalAlign=top;spacingLeft=4;spacingRight=4;overflow=hidden;rotatable=0;points=[[0,0.5],[1,0.5]];portConstraint=eastwest;" parent="39T05aaLQmFhzWcyVznc-1" vertex="1">
          <mxGeometry y="26" width="215" height="26" as="geometry" />
        </mxCell>
        <mxCell id="39T05aaLQmFhzWcyVznc-3" value="" style="line;strokeWidth=1;fillColor=none;align=left;verticalAlign=middle;spacingTop=-1;spacingLeft=3;spacingRight=3;rotatable=0;labelPosition=right;points=[];portConstraint=eastwest;" parent="39T05aaLQmFhzWcyVznc-1" vertex="1">
          <mxGeometry y="52" width="215" height="8" as="geometry" />
        </mxCell>
        <mxCell id="39T05aaLQmFhzWcyVznc-4" value="+ getCustomerById(id: long): Customer" style="text;strokeColor=none;fillColor=none;align=left;verticalAlign=top;spacingLeft=4;spacingRight=4;overflow=hidden;rotatable=0;points=[[0,0.5],[1,0.5]];portConstraint=eastwest;" parent="39T05aaLQmFhzWcyVznc-1" vertex="1">
          <mxGeometry y="60" width="215" height="26" as="geometry" />
        </mxCell>
        <mxCell id="39T05aaLQmFhzWcyVznc-14" value="+ getAllCustomers(): List&lt;Customer&gt;" style="text;strokeColor=none;fillColor=none;align=left;verticalAlign=top;spacingLeft=4;spacingRight=4;overflow=hidden;rotatable=0;points=[[0,0.5],[1,0.5]];portConstraint=eastwest;" parent="39T05aaLQmFhzWcyVznc-1" vertex="1">
          <mxGeometry y="86" width="215" height="26" as="geometry" />
        </mxCell>
        <mxCell id="39T05aaLQmFhzWcyVznc-15" value="+ addCustomer(custom: Customer)" style="text;strokeColor=none;fillColor=none;align=left;verticalAlign=top;spacingLeft=4;spacingRight=4;overflow=hidden;rotatable=0;points=[[0,0.5],[1,0.5]];portConstraint=eastwest;" parent="39T05aaLQmFhzWcyVznc-1" vertex="1">
          <mxGeometry y="112" width="215" height="26" as="geometry" />
        </mxCell>
        <mxCell id="39T05aaLQmFhzWcyVznc-17" value="OrderService" style="swimlane;fontStyle=1;align=center;verticalAlign=top;childLayout=stackLayout;horizontal=1;startSize=26;horizontalStack=0;resizeParent=1;resizeParentMax=0;resizeLast=0;collapsible=1;marginBottom=0;" parent="1" vertex="1">
          <mxGeometry x="660" y="558" width="230" height="196" as="geometry" />
        </mxCell>
        <mxCell id="39T05aaLQmFhzWcyVznc-18" value="- orderRepository" style="text;strokeColor=none;fillColor=none;align=left;verticalAlign=top;spacingLeft=4;spacingRight=4;overflow=hidden;rotatable=0;points=[[0,0.5],[1,0.5]];portConstraint=eastwest;" parent="39T05aaLQmFhzWcyVznc-17" vertex="1">
          <mxGeometry y="26" width="230" height="26" as="geometry" />
        </mxCell>
        <mxCell id="39T05aaLQmFhzWcyVznc-19" value="" style="line;strokeWidth=1;fillColor=none;align=left;verticalAlign=middle;spacingTop=-1;spacingLeft=3;spacingRight=3;rotatable=0;labelPosition=right;points=[];portConstraint=eastwest;" parent="39T05aaLQmFhzWcyVznc-17" vertex="1">
          <mxGeometry y="52" width="230" height="8" as="geometry" />
        </mxCell>
        <mxCell id="39T05aaLQmFhzWcyVznc-20" value="+ getOrderById(id: long): Order" style="text;strokeColor=none;fillColor=none;align=left;verticalAlign=top;spacingLeft=4;spacingRight=4;overflow=hidden;rotatable=0;points=[[0,0.5],[1,0.5]];portConstraint=eastwest;" parent="39T05aaLQmFhzWcyVznc-17" vertex="1">
          <mxGeometry y="60" width="230" height="26" as="geometry" />
        </mxCell>
        <mxCell id="39T05aaLQmFhzWcyVznc-21" value="+ getAllOrdersByCustomerId(id: Long): &#xa;List&lt;Order&gt;" style="text;strokeColor=none;fillColor=none;align=left;verticalAlign=top;spacingLeft=4;spacingRight=4;overflow=hidden;rotatable=0;points=[[0,0.5],[1,0.5]];portConstraint=eastwest;" parent="39T05aaLQmFhzWcyVznc-17" vertex="1">
          <mxGeometry y="86" width="230" height="44" as="geometry" />
        </mxCell>
        <mxCell id="yD7vaP7RqiZdNIwBWvnU-36" value="+ getAllOrdersByProviderId(id: Long): &#xa;List&lt;Order&gt;" style="text;strokeColor=none;fillColor=none;align=left;verticalAlign=top;spacingLeft=4;spacingRight=4;overflow=hidden;rotatable=0;points=[[0,0.5],[1,0.5]];portConstraint=eastwest;" parent="39T05aaLQmFhzWcyVznc-17" vertex="1">
          <mxGeometry y="130" width="230" height="40" as="geometry" />
        </mxCell>
        <mxCell id="39T05aaLQmFhzWcyVznc-22" value="+ newOrder(order: Order)" style="text;strokeColor=none;fillColor=none;align=left;verticalAlign=top;spacingLeft=4;spacingRight=4;overflow=hidden;rotatable=0;points=[[0,0.5],[1,0.5]];portConstraint=eastwest;" parent="39T05aaLQmFhzWcyVznc-17" vertex="1">
          <mxGeometry y="170" width="230" height="26" as="geometry" />
        </mxCell>
        <mxCell id="39T05aaLQmFhzWcyVznc-23" value="ProviderService" style="swimlane;fontStyle=1;align=center;verticalAlign=top;childLayout=stackLayout;horizontal=1;startSize=26;horizontalStack=0;resizeParent=1;resizeParentMax=0;resizeLast=0;collapsible=1;marginBottom=0;" parent="1" vertex="1">
          <mxGeometry x="255" y="558" width="205" height="138" as="geometry" />
        </mxCell>
        <mxCell id="39T05aaLQmFhzWcyVznc-24" value="- providerRepository" style="text;strokeColor=none;fillColor=none;align=left;verticalAlign=top;spacingLeft=4;spacingRight=4;overflow=hidden;rotatable=0;points=[[0,0.5],[1,0.5]];portConstraint=eastwest;" parent="39T05aaLQmFhzWcyVznc-23" vertex="1">
          <mxGeometry y="26" width="205" height="26" as="geometry" />
        </mxCell>
        <mxCell id="39T05aaLQmFhzWcyVznc-25" value="" style="line;strokeWidth=1;fillColor=none;align=left;verticalAlign=middle;spacingTop=-1;spacingLeft=3;spacingRight=3;rotatable=0;labelPosition=right;points=[];portConstraint=eastwest;" parent="39T05aaLQmFhzWcyVznc-23" vertex="1">
          <mxGeometry y="52" width="205" height="8" as="geometry" />
        </mxCell>
        <mxCell id="39T05aaLQmFhzWcyVznc-26" value="+ getProviderById(id: long): Provider" style="text;strokeColor=none;fillColor=none;align=left;verticalAlign=top;spacingLeft=4;spacingRight=4;overflow=hidden;rotatable=0;points=[[0,0.5],[1,0.5]];portConstraint=eastwest;" parent="39T05aaLQmFhzWcyVznc-23" vertex="1">
          <mxGeometry y="60" width="205" height="26" as="geometry" />
        </mxCell>
        <mxCell id="39T05aaLQmFhzWcyVznc-27" value="+ getAllProviders(): List&lt;Provider&gt;" style="text;strokeColor=none;fillColor=none;align=left;verticalAlign=top;spacingLeft=4;spacingRight=4;overflow=hidden;rotatable=0;points=[[0,0.5],[1,0.5]];portConstraint=eastwest;" parent="39T05aaLQmFhzWcyVznc-23" vertex="1">
          <mxGeometry y="86" width="205" height="26" as="geometry" />
        </mxCell>
        <mxCell id="39T05aaLQmFhzWcyVznc-28" value="+ addProvider(provider: Provider)" style="text;strokeColor=none;fillColor=none;align=left;verticalAlign=top;spacingLeft=4;spacingRight=4;overflow=hidden;rotatable=0;points=[[0,0.5],[1,0.5]];portConstraint=eastwest;" parent="39T05aaLQmFhzWcyVznc-23" vertex="1">
          <mxGeometry y="112" width="205" height="26" as="geometry" />
        </mxCell>
        <mxCell id="39T05aaLQmFhzWcyVznc-37" value="ENTITIES / VOs" style="text;strokeColor=none;fillColor=none;html=1;fontSize=24;fontStyle=1;verticalAlign=middle;align=center;rotation=90;" parent="1" vertex="1">
          <mxGeometry x="-100" y="611" width="100" height="40" as="geometry" />
        </mxCell>
        <mxCell id="39T05aaLQmFhzWcyVznc-40" value="" style="endArrow=none;html=1;rounded=0;entryX=0;entryY=1;entryDx=0;entryDy=0;fontColor=#1C03FF;labelBackgroundColor=#FFFFFF;strokeColor=#6c8ebf;fillColor=#dae8fc;" parent="1" target="39T05aaLQmFhzWcyVznc-38" edge="1">
          <mxGeometry width="50" height="50" relative="1" as="geometry">
            <mxPoint x="-840" y="980" as="sourcePoint" />
            <mxPoint x="-205" y="820" as="targetPoint" />
          </mxGeometry>
        </mxCell>
        <mxCell id="39T05aaLQmFhzWcyVznc-41" value="" style="endArrow=none;html=1;rounded=0;fillColor=#dae8fc;strokeColor=#6c8ebf;" parent="1" edge="1">
          <mxGeometry width="50" height="50" relative="1" as="geometry">
            <mxPoint x="-825" y="300" as="sourcePoint" />
            <mxPoint x="-75" y="300" as="targetPoint" />
          </mxGeometry>
        </mxCell>
        <mxCell id="39T05aaLQmFhzWcyVznc-43" value="" style="rounded=0;whiteSpace=wrap;html=1;fillColor=#e1d5e7;strokeColor=#9673a6;" parent="1" vertex="1">
          <mxGeometry x="40" y="508" width="850" height="40" as="geometry" />
        </mxCell>
        <mxCell id="39T05aaLQmFhzWcyVznc-44" value="Geschäftslogik" style="text;html=1;fontSize=24;fontStyle=1;verticalAlign=middle;align=center;" parent="1" vertex="1">
          <mxGeometry x="425" y="508" width="100" height="40" as="geometry" />
        </mxCell>
        <mxCell id="39T05aaLQmFhzWcyVznc-47" value="" style="rounded=0;whiteSpace=wrap;html=1;fillColor=#f5f5f5;strokeColor=#666666;fontColor=#333333;" parent="1" vertex="1">
          <mxGeometry x="40" y="810" width="850" height="40" as="geometry" />
        </mxCell>
        <mxCell id="39T05aaLQmFhzWcyVznc-48" value="&lt;div&gt;Datenzugriffsschicht&lt;/div&gt;" style="text;strokeColor=none;fillColor=none;html=1;fontSize=24;fontStyle=1;verticalAlign=middle;align=center;fontColor=#000000;" parent="1" vertex="1">
          <mxGeometry x="430" y="810" width="100" height="40" as="geometry" />
        </mxCell>
        <mxCell id="39T05aaLQmFhzWcyVznc-49" value="" style="rounded=0;whiteSpace=wrap;html=1;fillColor=#fff2cc;strokeColor=#d6b656;" parent="1" vertex="1">
          <mxGeometry x="40" y="230" width="850" height="40" as="geometry" />
        </mxCell>
        <mxCell id="39T05aaLQmFhzWcyVznc-50" value="Fachlogik-Kapselung" style="text;strokeColor=none;fillColor=none;html=1;fontSize=24;fontStyle=1;verticalAlign=middle;align=center;fontColor=#000000;" parent="1" vertex="1">
          <mxGeometry x="430" y="230" width="100" height="40" as="geometry" />
        </mxCell>
        <mxCell id="39T05aaLQmFhzWcyVznc-51" value="" style="rounded=0;whiteSpace=wrap;html=1;fillColor=#d5e8d4;strokeColor=#82b366;" parent="1" vertex="1">
          <mxGeometry x="40" y="-230" width="850" height="40" as="geometry" />
        </mxCell>
        <mxCell id="39T05aaLQmFhzWcyVznc-52" value="Benutzeroberfläche / GUI" style="text;strokeColor=none;fillColor=none;html=1;fontSize=24;fontStyle=1;verticalAlign=middle;align=center;fontColor=#000000;" parent="1" vertex="1">
          <mxGeometry x="415" y="-230" width="100" height="40" as="geometry" />
        </mxCell>
        <mxCell id="RFr_Boc9i2en51YFCuRV-6" value="Relation" style="endArrow=open;html=1;endSize=12;startArrow=diamondThin;startSize=14;startFill=0;edgeStyle=orthogonalEdgeStyle;rounded=0;" parent="1" source="RFr_Boc9i2en51YFCuRV-23" target="rFCh-DtLaKoqMe8977WI-1" edge="1">
          <mxGeometry relative="1" as="geometry">
            <mxPoint x="-230" y="540" as="sourcePoint" />
            <mxPoint x="-70" y="540" as="targetPoint" />
          </mxGeometry>
        </mxCell>
        <mxCell id="RFr_Boc9i2en51YFCuRV-7" value="0..n" style="edgeLabel;resizable=0;html=1;align=left;verticalAlign=top;" parent="RFr_Boc9i2en51YFCuRV-6" connectable="0" vertex="1">
          <mxGeometry x="-1" relative="1" as="geometry">
            <mxPoint x="-40" y="-4" as="offset" />
          </mxGeometry>
        </mxCell>
        <mxCell id="RFr_Boc9i2en51YFCuRV-8" value="1" style="edgeLabel;resizable=0;html=1;align=right;verticalAlign=top;" parent="RFr_Boc9i2en51YFCuRV-6" connectable="0" vertex="1">
          <mxGeometry x="1" relative="1" as="geometry">
            <mxPoint x="20" y="10" as="offset" />
          </mxGeometry>
        </mxCell>
        <mxCell id="RFr_Boc9i2en51YFCuRV-9" value="Relation" style="endArrow=open;html=1;endSize=12;startArrow=diamondThin;startSize=14;startFill=0;edgeStyle=orthogonalEdgeStyle;rounded=0;" parent="1" source="rFCh-DtLaKoqMe8977WI-27" target="6I47xcndarnHF87XZSYr-6" edge="1">
          <mxGeometry relative="1" as="geometry">
            <mxPoint x="-550" y="910" as="sourcePoint" />
            <mxPoint x="-390" y="910" as="targetPoint" />
            <Array as="points">
              <mxPoint x="-560" y="810" />
              <mxPoint x="-560" y="776" />
            </Array>
          </mxGeometry>
        </mxCell>
        <mxCell id="RFr_Boc9i2en51YFCuRV-10" value="0..n" style="edgeLabel;resizable=0;html=1;align=left;verticalAlign=top;" parent="RFr_Boc9i2en51YFCuRV-9" connectable="0" vertex="1">
          <mxGeometry x="-1" relative="1" as="geometry">
            <mxPoint x="-20" y="20" as="offset" />
          </mxGeometry>
        </mxCell>
        <mxCell id="RFr_Boc9i2en51YFCuRV-11" value="1" style="edgeLabel;resizable=0;html=1;align=right;verticalAlign=top;" parent="RFr_Boc9i2en51YFCuRV-9" connectable="0" vertex="1">
          <mxGeometry x="1" relative="1" as="geometry">
            <mxPoint x="20" y="4" as="offset" />
          </mxGeometry>
        </mxCell>
        <mxCell id="RFr_Boc9i2en51YFCuRV-23" value="Questionnaire" style="swimlane;fontStyle=1;align=center;verticalAlign=top;childLayout=stackLayout;horizontal=1;startSize=26;horizontalStack=0;resizeParent=1;resizeParentMax=0;resizeLast=0;collapsible=1;marginBottom=0;" parent="1" vertex="1">
          <mxGeometry x="-400" y="350" width="160" height="112" as="geometry" />
        </mxCell>
        <mxCell id="RFr_Boc9i2en51YFCuRV-24" value="- id: long&#xa;" style="text;strokeColor=none;fillColor=none;align=left;verticalAlign=top;spacingLeft=4;spacingRight=4;overflow=hidden;rotatable=0;points=[[0,0.5],[1,0.5]];portConstraint=eastwest;" parent="RFr_Boc9i2en51YFCuRV-23" vertex="1">
          <mxGeometry y="26" width="160" height="26" as="geometry" />
        </mxCell>
        <mxCell id="RFr_Boc9i2en51YFCuRV-27" value="- ..." style="text;strokeColor=none;fillColor=none;align=left;verticalAlign=top;spacingLeft=4;spacingRight=4;overflow=hidden;rotatable=0;points=[[0,0.5],[1,0.5]];portConstraint=eastwest;" parent="RFr_Boc9i2en51YFCuRV-23" vertex="1">
          <mxGeometry y="52" width="160" height="26" as="geometry" />
        </mxCell>
        <mxCell id="RFr_Boc9i2en51YFCuRV-25" value="" style="line;strokeWidth=1;fillColor=none;align=left;verticalAlign=middle;spacingTop=-1;spacingLeft=3;spacingRight=3;rotatable=0;labelPosition=right;points=[];portConstraint=eastwest;" parent="RFr_Boc9i2en51YFCuRV-23" vertex="1">
          <mxGeometry y="78" width="160" height="8" as="geometry" />
        </mxCell>
        <mxCell id="RFr_Boc9i2en51YFCuRV-26" value="+ method(type): type" style="text;strokeColor=none;fillColor=none;align=left;verticalAlign=top;spacingLeft=4;spacingRight=4;overflow=hidden;rotatable=0;points=[[0,0.5],[1,0.5]];portConstraint=eastwest;" parent="RFr_Boc9i2en51YFCuRV-23" vertex="1">
          <mxGeometry y="86" width="160" height="26" as="geometry" />
        </mxCell>
        <mxCell id="RFr_Boc9i2en51YFCuRV-31" value="1" style="endArrow=open;html=1;endSize=12;startArrow=diamondThin;startSize=14;startFill=0;edgeStyle=orthogonalEdgeStyle;align=left;verticalAlign=bottom;rounded=0;" parent="1" source="rFCh-DtLaKoqMe8977WI-35" target="rFCh-DtLaKoqMe8977WI-27" edge="1">
          <mxGeometry x="-0.6825" y="29" relative="1" as="geometry">
            <mxPoint x="-300" y="650" as="sourcePoint" />
            <mxPoint x="-140" y="650" as="targetPoint" />
            <mxPoint as="offset" />
          </mxGeometry>
        </mxCell>
        <mxCell id="RFr_Boc9i2en51YFCuRV-32" value="Relation" style="endArrow=open;html=1;endSize=12;startArrow=diamondThin;startSize=14;startFill=0;edgeStyle=orthogonalEdgeStyle;rounded=0;" parent="1" source="rFCh-DtLaKoqMe8977WI-27" target="rFCh-DtLaKoqMe8977WI-1" edge="1">
          <mxGeometry relative="1" as="geometry">
            <mxPoint x="-390" y="416" as="sourcePoint" />
            <mxPoint x="-540" y="470" as="targetPoint" />
          </mxGeometry>
        </mxCell>
        <mxCell id="RFr_Boc9i2en51YFCuRV-33" value="0..n" style="edgeLabel;resizable=0;html=1;align=left;verticalAlign=top;" parent="RFr_Boc9i2en51YFCuRV-32" connectable="0" vertex="1">
          <mxGeometry x="-1" relative="1" as="geometry">
            <mxPoint x="-40" y="-4" as="offset" />
          </mxGeometry>
        </mxCell>
        <mxCell id="RFr_Boc9i2en51YFCuRV-34" value="1" style="edgeLabel;resizable=0;html=1;align=right;verticalAlign=top;" parent="RFr_Boc9i2en51YFCuRV-32" connectable="0" vertex="1">
          <mxGeometry x="1" relative="1" as="geometry">
            <mxPoint x="20" y="10" as="offset" />
          </mxGeometry>
        </mxCell>
        <mxCell id="RFr_Boc9i2en51YFCuRV-36" value="Use" style="endArrow=open;endSize=12;dashed=1;html=1;rounded=0;" parent="1" source="rFCh-DtLaKoqMe8977WI-27" target="RFr_Boc9i2en51YFCuRV-23" edge="1">
          <mxGeometry width="160" relative="1" as="geometry">
            <mxPoint x="-330" y="560" as="sourcePoint" />
            <mxPoint x="-170" y="560" as="targetPoint" />
            <Array as="points">
              <mxPoint x="-390" y="550" />
              <mxPoint x="-320" y="550" />
            </Array>
          </mxGeometry>
        </mxCell>
        <mxCell id="yD7vaP7RqiZdNIwBWvnU-1" value="CustomerController" style="swimlane;fontStyle=1;align=center;verticalAlign=top;childLayout=stackLayout;horizontal=1;startSize=26;horizontalStack=0;resizeParent=1;resizeParentMax=0;resizeLast=0;collapsible=1;marginBottom=0;" parent="1" vertex="1">
          <mxGeometry x="40" y="281" width="210" height="138" as="geometry" />
        </mxCell>
        <mxCell id="yD7vaP7RqiZdNIwBWvnU-2" value="- customerService" style="text;strokeColor=none;fillColor=none;align=left;verticalAlign=top;spacingLeft=4;spacingRight=4;overflow=hidden;rotatable=0;points=[[0,0.5],[1,0.5]];portConstraint=eastwest;" parent="yD7vaP7RqiZdNIwBWvnU-1" vertex="1">
          <mxGeometry y="26" width="210" height="26" as="geometry" />
        </mxCell>
        <mxCell id="yD7vaP7RqiZdNIwBWvnU-3" value="" style="line;strokeWidth=1;fillColor=none;align=left;verticalAlign=middle;spacingTop=-1;spacingLeft=3;spacingRight=3;rotatable=0;labelPosition=right;points=[];portConstraint=eastwest;" parent="yD7vaP7RqiZdNIwBWvnU-1" vertex="1">
          <mxGeometry y="52" width="210" height="8" as="geometry" />
        </mxCell>
        <mxCell id="yD7vaP7RqiZdNIwBWvnU-4" value="+ showCustomers(): List&lt;Customer&gt;" style="text;strokeColor=none;fillColor=none;align=left;verticalAlign=top;spacingLeft=4;spacingRight=4;overflow=hidden;rotatable=0;points=[[0,0.5],[1,0.5]];portConstraint=eastwest;" parent="yD7vaP7RqiZdNIwBWvnU-1" vertex="1">
          <mxGeometry y="60" width="210" height="26" as="geometry" />
        </mxCell>
        <mxCell id="yD7vaP7RqiZdNIwBWvnU-23" value="+ addCustomer(customerFormModel)" style="text;strokeColor=none;fillColor=none;align=left;verticalAlign=top;spacingLeft=4;spacingRight=4;overflow=hidden;rotatable=0;points=[[0,0.5],[1,0.5]];portConstraint=eastwest;" parent="yD7vaP7RqiZdNIwBWvnU-1" vertex="1">
          <mxGeometry y="86" width="210" height="26" as="geometry" />
        </mxCell>
        <mxCell id="yD7vaP7RqiZdNIwBWvnU-24" value="+ getCustomer(id: Long): Customer" style="text;strokeColor=none;fillColor=none;align=left;verticalAlign=top;spacingLeft=4;spacingRight=4;overflow=hidden;rotatable=0;points=[[0,0.5],[1,0.5]];portConstraint=eastwest;" parent="yD7vaP7RqiZdNIwBWvnU-1" vertex="1">
          <mxGeometry y="112" width="210" height="26" as="geometry" />
        </mxCell>
        <mxCell id="yD7vaP7RqiZdNIwBWvnU-7" value="ProviderController" style="swimlane;fontStyle=1;align=center;verticalAlign=top;childLayout=stackLayout;horizontal=1;startSize=26;horizontalStack=0;resizeParent=1;resizeParentMax=0;resizeLast=0;collapsible=1;marginBottom=0;" parent="1" vertex="1">
          <mxGeometry x="275" y="281" width="195" height="138" as="geometry" />
        </mxCell>
        <mxCell id="yD7vaP7RqiZdNIwBWvnU-8" value="- providerService" style="text;strokeColor=none;fillColor=none;align=left;verticalAlign=top;spacingLeft=4;spacingRight=4;overflow=hidden;rotatable=0;points=[[0,0.5],[1,0.5]];portConstraint=eastwest;" parent="yD7vaP7RqiZdNIwBWvnU-7" vertex="1">
          <mxGeometry y="26" width="195" height="26" as="geometry" />
        </mxCell>
        <mxCell id="yD7vaP7RqiZdNIwBWvnU-9" value="" style="line;strokeWidth=1;fillColor=none;align=left;verticalAlign=middle;spacingTop=-1;spacingLeft=3;spacingRight=3;rotatable=0;labelPosition=right;points=[];portConstraint=eastwest;" parent="yD7vaP7RqiZdNIwBWvnU-7" vertex="1">
          <mxGeometry y="52" width="195" height="8" as="geometry" />
        </mxCell>
        <mxCell id="yD7vaP7RqiZdNIwBWvnU-10" value="+ showProviders(): List&lt;Provider" style="text;strokeColor=none;fillColor=none;align=left;verticalAlign=top;spacingLeft=4;spacingRight=4;overflow=hidden;rotatable=0;points=[[0,0.5],[1,0.5]];portConstraint=eastwest;" parent="yD7vaP7RqiZdNIwBWvnU-7" vertex="1">
          <mxGeometry y="60" width="195" height="26" as="geometry" />
        </mxCell>
        <mxCell id="yD7vaP7RqiZdNIwBWvnU-26" value="+ addProvider(providerFormModel)" style="text;strokeColor=none;fillColor=none;align=left;verticalAlign=top;spacingLeft=4;spacingRight=4;overflow=hidden;rotatable=0;points=[[0,0.5],[1,0.5]];portConstraint=eastwest;" parent="yD7vaP7RqiZdNIwBWvnU-7" vertex="1">
          <mxGeometry y="86" width="195" height="26" as="geometry" />
        </mxCell>
        <mxCell id="yD7vaP7RqiZdNIwBWvnU-27" value="+ getProvider(id Long: Provider" style="text;strokeColor=none;fillColor=none;align=left;verticalAlign=top;spacingLeft=4;spacingRight=4;overflow=hidden;rotatable=0;points=[[0,0.5],[1,0.5]];portConstraint=eastwest;" parent="yD7vaP7RqiZdNIwBWvnU-7" vertex="1">
          <mxGeometry y="112" width="195" height="26" as="geometry" />
        </mxCell>
        <mxCell id="yD7vaP7RqiZdNIwBWvnU-11" value="QuestionnaireController" style="swimlane;fontStyle=1;align=center;verticalAlign=top;childLayout=stackLayout;horizontal=1;startSize=26;horizontalStack=0;resizeParent=1;resizeParentMax=0;resizeLast=0;collapsible=1;marginBottom=0;" parent="1" vertex="1">
          <mxGeometry x="495" y="281" width="180" height="130" as="geometry" />
        </mxCell>
        <mxCell id="yD7vaP7RqiZdNIwBWvnU-12" value="- questionnaireService" style="text;strokeColor=none;fillColor=none;align=left;verticalAlign=top;spacingLeft=4;spacingRight=4;overflow=hidden;rotatable=0;points=[[0,0.5],[1,0.5]];portConstraint=eastwest;" parent="yD7vaP7RqiZdNIwBWvnU-11" vertex="1">
          <mxGeometry y="26" width="180" height="26" as="geometry" />
        </mxCell>
        <mxCell id="yD7vaP7RqiZdNIwBWvnU-13" value="" style="line;strokeWidth=1;fillColor=none;align=left;verticalAlign=middle;spacingTop=-1;spacingLeft=3;spacingRight=3;rotatable=0;labelPosition=right;points=[];portConstraint=eastwest;" parent="yD7vaP7RqiZdNIwBWvnU-11" vertex="1">
          <mxGeometry y="52" width="180" height="8" as="geometry" />
        </mxCell>
        <mxCell id="yD7vaP7RqiZdNIwBWvnU-14" value="+ showEmptyQuestionnaire()" style="text;strokeColor=none;fillColor=none;align=left;verticalAlign=top;spacingLeft=4;spacingRight=4;overflow=hidden;rotatable=0;points=[[0,0.5],[1,0.5]];portConstraint=eastwest;" parent="yD7vaP7RqiZdNIwBWvnU-11" vertex="1">
          <mxGeometry y="60" width="180" height="30" as="geometry" />
        </mxCell>
        <mxCell id="yD7vaP7RqiZdNIwBWvnU-29" value="+ submitQuestionnaire(&#xa;questionnaireFormmodel)" style="text;strokeColor=none;fillColor=none;align=left;verticalAlign=top;spacingLeft=4;spacingRight=4;overflow=hidden;rotatable=0;points=[[0,0.5],[1,0.5]];portConstraint=eastwest;" parent="yD7vaP7RqiZdNIwBWvnU-11" vertex="1">
          <mxGeometry y="90" width="180" height="40" as="geometry" />
        </mxCell>
        <mxCell id="yD7vaP7RqiZdNIwBWvnU-15" value="OrderController" style="swimlane;fontStyle=1;align=center;verticalAlign=top;childLayout=stackLayout;horizontal=1;startSize=26;horizontalStack=0;resizeParent=1;resizeParentMax=0;resizeLast=0;collapsible=1;marginBottom=0;" parent="1" vertex="1">
          <mxGeometry x="695" y="281" width="195" height="196" as="geometry" />
        </mxCell>
        <mxCell id="yD7vaP7RqiZdNIwBWvnU-16" value="- orderService" style="text;strokeColor=none;fillColor=none;align=left;verticalAlign=top;spacingLeft=4;spacingRight=4;overflow=hidden;rotatable=0;points=[[0,0.5],[1,0.5]];portConstraint=eastwest;" parent="yD7vaP7RqiZdNIwBWvnU-15" vertex="1">
          <mxGeometry y="26" width="195" height="26" as="geometry" />
        </mxCell>
        <mxCell id="yD7vaP7RqiZdNIwBWvnU-17" value="" style="line;strokeWidth=1;fillColor=none;align=left;verticalAlign=middle;spacingTop=-1;spacingLeft=3;spacingRight=3;rotatable=0;labelPosition=right;points=[];portConstraint=eastwest;" parent="yD7vaP7RqiZdNIwBWvnU-15" vertex="1">
          <mxGeometry y="52" width="195" height="8" as="geometry" />
        </mxCell>
        <mxCell id="yD7vaP7RqiZdNIwBWvnU-18" value="+ showOrder(id:long)" style="text;strokeColor=none;fillColor=none;align=left;verticalAlign=top;spacingLeft=4;spacingRight=4;overflow=hidden;rotatable=0;points=[[0,0.5],[1,0.5]];portConstraint=eastwest;" parent="yD7vaP7RqiZdNIwBWvnU-15" vertex="1">
          <mxGeometry y="60" width="195" height="26" as="geometry" />
        </mxCell>
        <mxCell id="yD7vaP7RqiZdNIwBWvnU-34" value="+ showAllOrdersByCustomer&#xa;(customerId:long): List&lt;Order&gt;" style="text;strokeColor=none;fillColor=none;align=left;verticalAlign=top;spacingLeft=4;spacingRight=4;overflow=hidden;rotatable=0;points=[[0,0.5],[1,0.5]];portConstraint=eastwest;" parent="yD7vaP7RqiZdNIwBWvnU-15" vertex="1">
          <mxGeometry y="86" width="195" height="44" as="geometry" />
        </mxCell>
        <mxCell id="yD7vaP7RqiZdNIwBWvnU-35" value="+ showAllOrdersByProvider&#xa;(providerId: long): List&lt;Order&gt;" style="text;strokeColor=none;fillColor=none;align=left;verticalAlign=top;spacingLeft=4;spacingRight=4;overflow=hidden;rotatable=0;points=[[0,0.5],[1,0.5]];portConstraint=eastwest;" parent="yD7vaP7RqiZdNIwBWvnU-15" vertex="1">
          <mxGeometry y="130" width="195" height="40" as="geometry" />
        </mxCell>
        <mxCell id="yD7vaP7RqiZdNIwBWvnU-30" value="+ setStatus()" style="text;strokeColor=none;fillColor=none;align=left;verticalAlign=top;spacingLeft=4;spacingRight=4;overflow=hidden;rotatable=0;points=[[0,0.5],[1,0.5]];portConstraint=eastwest;" parent="yD7vaP7RqiZdNIwBWvnU-15" vertex="1">
          <mxGeometry y="170" width="195" height="26" as="geometry" />
        </mxCell>
        <mxCell id="yD7vaP7RqiZdNIwBWvnU-48" value="QuestionnaireService" style="swimlane;fontStyle=1;align=center;verticalAlign=top;childLayout=stackLayout;horizontal=1;startSize=26;horizontalStack=0;resizeParent=1;resizeParentMax=0;resizeLast=0;collapsible=1;marginBottom=0;" parent="1" vertex="1">
          <mxGeometry x="460" y="558" width="200" height="172" as="geometry" />
        </mxCell>
        <mxCell id="yD7vaP7RqiZdNIwBWvnU-49" value="- questionnaireRepository" style="text;strokeColor=none;fillColor=none;align=left;verticalAlign=top;spacingLeft=4;spacingRight=4;overflow=hidden;rotatable=0;points=[[0,0.5],[1,0.5]];portConstraint=eastwest;" parent="yD7vaP7RqiZdNIwBWvnU-48" vertex="1">
          <mxGeometry y="26" width="200" height="24" as="geometry" />
        </mxCell>
        <mxCell id="yD7vaP7RqiZdNIwBWvnU-56" value="- orderService" style="text;strokeColor=none;fillColor=none;align=left;verticalAlign=top;spacingLeft=4;spacingRight=4;overflow=hidden;rotatable=0;points=[[0,0.5],[1,0.5]];portConstraint=eastwest;" parent="yD7vaP7RqiZdNIwBWvnU-48" vertex="1">
          <mxGeometry y="50" width="200" height="24" as="geometry" />
        </mxCell>
        <mxCell id="yD7vaP7RqiZdNIwBWvnU-50" value="" style="line;strokeWidth=1;fillColor=none;align=left;verticalAlign=middle;spacingTop=-1;spacingLeft=3;spacingRight=3;rotatable=0;labelPosition=right;points=[];portConstraint=eastwest;" parent="yD7vaP7RqiZdNIwBWvnU-48" vertex="1">
          <mxGeometry y="74" width="200" height="18" as="geometry" />
        </mxCell>
        <mxCell id="yD7vaP7RqiZdNIwBWvnU-54" value="+ getEmptyQuestionnaire():&#xa;Questionnaire" style="text;strokeColor=none;fillColor=none;align=left;verticalAlign=top;spacingLeft=4;spacingRight=4;overflow=hidden;rotatable=0;points=[[0,0.5],[1,0.5]];portConstraint=eastwest;" parent="yD7vaP7RqiZdNIwBWvnU-48" vertex="1">
          <mxGeometry y="92" width="200" height="38" as="geometry" />
        </mxCell>
        <mxCell id="yD7vaP7RqiZdNIwBWvnU-55" value="+ createOrderFromQuestionnaire(&#xa;questionnaire: Questionnaire)" style="text;strokeColor=none;fillColor=none;align=left;verticalAlign=top;spacingLeft=4;spacingRight=4;overflow=hidden;rotatable=0;points=[[0,0.5],[1,0.5]];portConstraint=eastwest;" parent="yD7vaP7RqiZdNIwBWvnU-48" vertex="1">
          <mxGeometry y="130" width="200" height="42" as="geometry" />
        </mxCell>
        <mxCell id="yD7vaP7RqiZdNIwBWvnU-57" value="" style="edgeStyle=orthogonalEdgeStyle;rounded=0;orthogonalLoop=1;jettySize=auto;html=1;" parent="1" source="yD7vaP7RqiZdNIwBWvnU-55" target="39T05aaLQmFhzWcyVznc-22" edge="1">
          <mxGeometry relative="1" as="geometry">
            <Array as="points">
              <mxPoint x="670" y="743" />
            </Array>
          </mxGeometry>
        </mxCell>
        <mxCell id="yD7vaP7RqiZdNIwBWvnU-59" value="CustomerRepository" style="swimlane;fontStyle=1;align=center;verticalAlign=top;childLayout=stackLayout;horizontal=1;startSize=26;horizontalStack=0;resizeParent=1;resizeParentMax=0;resizeLast=0;collapsible=1;marginBottom=0;" parent="1" vertex="1">
          <mxGeometry x="40" y="920" width="215" height="60" as="geometry" />
        </mxCell>
        <mxCell id="yD7vaP7RqiZdNIwBWvnU-61" value="" style="line;strokeWidth=1;fillColor=none;align=left;verticalAlign=middle;spacingTop=-1;spacingLeft=3;spacingRight=3;rotatable=0;labelPosition=right;points=[];portConstraint=eastwest;" parent="yD7vaP7RqiZdNIwBWvnU-59" vertex="1">
          <mxGeometry y="26" width="215" height="8" as="geometry" />
        </mxCell>
        <mxCell id="yD7vaP7RqiZdNIwBWvnU-63" value="+method(): void" style="text;strokeColor=none;fillColor=none;align=left;verticalAlign=top;spacingLeft=4;spacingRight=4;overflow=hidden;rotatable=0;points=[[0,0.5],[1,0.5]];portConstraint=eastwest;" parent="yD7vaP7RqiZdNIwBWvnU-59" vertex="1">
          <mxGeometry y="34" width="215" height="26" as="geometry" />
        </mxCell>
        <mxCell id="yD7vaP7RqiZdNIwBWvnU-65" value="OrderRepository" style="swimlane;fontStyle=1;align=center;verticalAlign=top;childLayout=stackLayout;horizontal=1;startSize=26;horizontalStack=0;resizeParent=1;resizeParentMax=0;resizeLast=0;collapsible=1;marginBottom=0;" parent="1" vertex="1">
          <mxGeometry x="660" y="920" width="230" height="60" as="geometry" />
        </mxCell>
        <mxCell id="yD7vaP7RqiZdNIwBWvnU-67" value="" style="line;strokeWidth=1;fillColor=none;align=left;verticalAlign=middle;spacingTop=-1;spacingLeft=3;spacingRight=3;rotatable=0;labelPosition=right;points=[];portConstraint=eastwest;" parent="yD7vaP7RqiZdNIwBWvnU-65" vertex="1">
          <mxGeometry y="26" width="230" height="8" as="geometry" />
        </mxCell>
        <mxCell id="yD7vaP7RqiZdNIwBWvnU-71" value="+ methodVoid()" style="text;strokeColor=none;fillColor=none;align=left;verticalAlign=top;spacingLeft=4;spacingRight=4;overflow=hidden;rotatable=0;points=[[0,0.5],[1,0.5]];portConstraint=eastwest;" parent="yD7vaP7RqiZdNIwBWvnU-65" vertex="1">
          <mxGeometry y="34" width="230" height="26" as="geometry" />
        </mxCell>
        <mxCell id="yD7vaP7RqiZdNIwBWvnU-72" value="ProviderRepository" style="swimlane;fontStyle=1;align=center;verticalAlign=top;childLayout=stackLayout;horizontal=1;startSize=26;horizontalStack=0;resizeParent=1;resizeParentMax=0;resizeLast=0;collapsible=1;marginBottom=0;" parent="1" vertex="1">
          <mxGeometry x="255" y="920" width="205" height="60" as="geometry" />
        </mxCell>
        <mxCell id="yD7vaP7RqiZdNIwBWvnU-74" value="" style="line;strokeWidth=1;fillColor=none;align=left;verticalAlign=middle;spacingTop=-1;spacingLeft=3;spacingRight=3;rotatable=0;labelPosition=right;points=[];portConstraint=eastwest;" parent="yD7vaP7RqiZdNIwBWvnU-72" vertex="1">
          <mxGeometry y="26" width="205" height="8" as="geometry" />
        </mxCell>
        <mxCell id="yD7vaP7RqiZdNIwBWvnU-77" value="+ method():void" style="text;strokeColor=none;fillColor=none;align=left;verticalAlign=top;spacingLeft=4;spacingRight=4;overflow=hidden;rotatable=0;points=[[0,0.5],[1,0.5]];portConstraint=eastwest;" parent="yD7vaP7RqiZdNIwBWvnU-72" vertex="1">
          <mxGeometry y="34" width="205" height="26" as="geometry" />
        </mxCell>
        <mxCell id="yD7vaP7RqiZdNIwBWvnU-93" value="CrudRepository" style="swimlane;fontStyle=1;align=center;verticalAlign=top;childLayout=stackLayout;horizontal=1;startSize=26;horizontalStack=0;resizeParent=1;resizeParentMax=0;resizeLast=0;collapsible=1;marginBottom=0;" parent="1" vertex="1">
          <mxGeometry x="370" y="860" width="160" height="34" as="geometry" />
        </mxCell>
        <mxCell id="yD7vaP7RqiZdNIwBWvnU-95" value="" style="line;strokeWidth=1;fillColor=none;align=left;verticalAlign=middle;spacingTop=-1;spacingLeft=3;spacingRight=3;rotatable=0;labelPosition=right;points=[];portConstraint=eastwest;" parent="yD7vaP7RqiZdNIwBWvnU-93" vertex="1">
          <mxGeometry y="26" width="160" height="8" as="geometry" />
        </mxCell>
        <mxCell id="yD7vaP7RqiZdNIwBWvnU-97" value="Extends" style="endArrow=block;endSize=16;endFill=0;html=1;rounded=0;" parent="1" source="yD7vaP7RqiZdNIwBWvnU-72" target="yD7vaP7RqiZdNIwBWvnU-93" edge="1">
          <mxGeometry x="-1" y="18" width="160" relative="1" as="geometry">
            <mxPoint x="480" y="900" as="sourcePoint" />
            <mxPoint x="640" y="900" as="targetPoint" />
            <mxPoint x="-1" y="1" as="offset" />
          </mxGeometry>
        </mxCell>
        <mxCell id="yD7vaP7RqiZdNIwBWvnU-98" value="Extends" style="endArrow=block;endSize=16;endFill=0;html=1;rounded=0;" parent="1" source="yD7vaP7RqiZdNIwBWvnU-59" target="yD7vaP7RqiZdNIwBWvnU-93" edge="1">
          <mxGeometry width="160" relative="1" as="geometry">
            <mxPoint x="480" y="900" as="sourcePoint" />
            <mxPoint x="640" y="900" as="targetPoint" />
            <Array as="points">
              <mxPoint x="148" y="877" />
            </Array>
          </mxGeometry>
        </mxCell>
        <mxCell id="yD7vaP7RqiZdNIwBWvnU-99" value="Extends" style="endArrow=block;endSize=16;endFill=0;html=1;rounded=0;" parent="1" source="yD7vaP7RqiZdNIwBWvnU-105" target="yD7vaP7RqiZdNIwBWvnU-93" edge="1">
          <mxGeometry x="-1" y="-16" width="160" relative="1" as="geometry">
            <mxPoint x="506.30952380952385" y="920" as="sourcePoint" />
            <mxPoint x="640" y="900" as="targetPoint" />
            <mxPoint x="1" as="offset" />
          </mxGeometry>
        </mxCell>
        <mxCell id="yD7vaP7RqiZdNIwBWvnU-100" value="Extends" style="endArrow=block;endSize=16;endFill=0;html=1;rounded=0;exitX=0.326;exitY=-0.005;exitDx=0;exitDy=0;exitPerimeter=0;" parent="1" source="yD7vaP7RqiZdNIwBWvnU-65" target="yD7vaP7RqiZdNIwBWvnU-93" edge="1">
          <mxGeometry width="160" relative="1" as="geometry">
            <mxPoint x="480" y="900" as="sourcePoint" />
            <mxPoint x="640" y="900" as="targetPoint" />
            <Array as="points">
              <mxPoint x="735" y="877" />
            </Array>
          </mxGeometry>
        </mxCell>
        <mxCell id="yD7vaP7RqiZdNIwBWvnU-105" value="QuestionnaireRepository" style="swimlane;fontStyle=1;align=center;verticalAlign=top;childLayout=stackLayout;horizontal=1;startSize=26;horizontalStack=0;resizeParent=1;resizeParentMax=0;resizeLast=0;collapsible=1;marginBottom=0;" parent="1" vertex="1">
          <mxGeometry x="460" y="920" width="200" height="60" as="geometry" />
        </mxCell>
        <mxCell id="yD7vaP7RqiZdNIwBWvnU-106" value="" style="line;strokeWidth=1;fillColor=none;align=left;verticalAlign=middle;spacingTop=-1;spacingLeft=3;spacingRight=3;rotatable=0;labelPosition=right;points=[];portConstraint=eastwest;" parent="yD7vaP7RqiZdNIwBWvnU-105" vertex="1">
          <mxGeometry y="26" width="200" height="8" as="geometry" />
        </mxCell>
        <mxCell id="yD7vaP7RqiZdNIwBWvnU-107" value="+ method():void" style="text;strokeColor=none;fillColor=none;align=left;verticalAlign=top;spacingLeft=4;spacingRight=4;overflow=hidden;rotatable=0;points=[[0,0.5],[1,0.5]];portConstraint=eastwest;" parent="yD7vaP7RqiZdNIwBWvnU-105" vertex="1">
          <mxGeometry y="34" width="200" height="26" as="geometry" />
        </mxCell>
        <mxCell id="aJVCs53JZPM8vwfDpUoB-1" value="Startpage.html" style="swimlane;fontStyle=1;align=center;verticalAlign=top;childLayout=stackLayout;horizontal=1;startSize=26;horizontalStack=0;resizeParent=1;resizeParentMax=0;resizeLast=0;collapsible=1;marginBottom=0;" parent="1" vertex="1">
          <mxGeometry x="40" y="-153.5" width="210" height="180" as="geometry" />
        </mxCell>
        <mxCell id="aJVCs53JZPM8vwfDpUoB-9" value="CONTENT: &#xa;&#xa;AboutUs&#xa;" style="text;strokeColor=none;fillColor=none;align=left;verticalAlign=top;spacingLeft=4;spacingRight=4;overflow=hidden;rotatable=0;points=[[0,0.5],[1,0.5]];portConstraint=eastwest;" parent="aJVCs53JZPM8vwfDpUoB-1" vertex="1">
          <mxGeometry y="26" width="210" height="24" as="geometry" />
        </mxCell>
        <mxCell id="aJVCs53JZPM8vwfDpUoB-11" value="+ Home" style="text;strokeColor=none;fillColor=none;align=left;verticalAlign=top;spacingLeft=4;spacingRight=4;overflow=hidden;rotatable=0;points=[[0,0.5],[1,0.5]];portConstraint=eastwest;" parent="aJVCs53JZPM8vwfDpUoB-1" vertex="1">
          <mxGeometry y="50" width="210" height="26" as="geometry" />
        </mxCell>
        <mxCell id="aJVCs53JZPM8vwfDpUoB-34" value="+ About Us" style="text;strokeColor=none;fillColor=none;align=left;verticalAlign=top;spacingLeft=4;spacingRight=4;overflow=hidden;rotatable=0;points=[[0,0.5],[1,0.5]];portConstraint=eastwest;" parent="aJVCs53JZPM8vwfDpUoB-1" vertex="1">
          <mxGeometry y="76" width="210" height="26" as="geometry" />
        </mxCell>
        <mxCell id="aJVCs53JZPM8vwfDpUoB-12" value="+ Contact" style="text;strokeColor=none;fillColor=none;align=left;verticalAlign=top;spacingLeft=4;spacingRight=4;overflow=hidden;rotatable=0;points=[[0,0.5],[1,0.5]];portConstraint=eastwest;" parent="aJVCs53JZPM8vwfDpUoB-1" vertex="1">
          <mxGeometry y="102" width="210" height="26" as="geometry" />
        </mxCell>
        <mxCell id="aJVCs53JZPM8vwfDpUoB-13" value="+ LogIn (LINK)" style="text;strokeColor=none;fillColor=none;align=left;verticalAlign=top;spacingLeft=4;spacingRight=4;overflow=hidden;rotatable=0;points=[[0,0.5],[1,0.5]];portConstraint=eastwest;" parent="aJVCs53JZPM8vwfDpUoB-1" vertex="1">
          <mxGeometry y="128" width="210" height="26" as="geometry" />
        </mxCell>
        <mxCell id="aJVCs53JZPM8vwfDpUoB-14" value="+ Register (Customer/Provider)(L)" style="text;strokeColor=none;fillColor=none;align=left;verticalAlign=top;spacingLeft=4;spacingRight=4;overflow=hidden;rotatable=0;points=[[0,0.5],[1,0.5]];portConstraint=eastwest;" parent="aJVCs53JZPM8vwfDpUoB-1" vertex="1">
          <mxGeometry y="154" width="210" height="26" as="geometry" />
        </mxCell>
        <mxCell id="aJVCs53JZPM8vwfDpUoB-46" style="edgeStyle=orthogonalEdgeStyle;rounded=0;orthogonalLoop=1;jettySize=auto;html=1;startArrow=none;entryX=0.5;entryY=1;entryDx=0;entryDy=0;" parent="1" source="aJVCs53JZPM8vwfDpUoB-47" target="aJVCs53JZPM8vwfDpUoB-35" edge="1">
          <mxGeometry relative="1" as="geometry">
            <mxPoint x="515" y="-30" as="targetPoint" />
            <Array as="points">
              <mxPoint x="515" y="-30" />
            </Array>
          </mxGeometry>
        </mxCell>
        <mxCell id="aJVCs53JZPM8vwfDpUoB-20" value="Login.html" style="swimlane;fontStyle=1;align=center;verticalAlign=top;childLayout=stackLayout;horizontal=1;startSize=26;horizontalStack=0;resizeParent=1;resizeParentMax=0;resizeLast=0;collapsible=1;marginBottom=0;" parent="1" vertex="1">
          <mxGeometry x="330" y="50" width="210" height="102" as="geometry" />
        </mxCell>
        <mxCell id="aJVCs53JZPM8vwfDpUoB-21" value="CONTENT: &#xa;&#xa;AboutUs&#xa;" style="text;strokeColor=none;fillColor=none;align=left;verticalAlign=top;spacingLeft=4;spacingRight=4;overflow=hidden;rotatable=0;points=[[0,0.5],[1,0.5]];portConstraint=eastwest;" parent="aJVCs53JZPM8vwfDpUoB-20" vertex="1">
          <mxGeometry y="26" width="210" height="24" as="geometry" />
        </mxCell>
        <mxCell id="aJVCs53JZPM8vwfDpUoB-22" value="+ Login-field " style="text;strokeColor=none;fillColor=none;align=left;verticalAlign=top;spacingLeft=4;spacingRight=4;overflow=hidden;rotatable=0;points=[[0,0.5],[1,0.5]];portConstraint=eastwest;" parent="aJVCs53JZPM8vwfDpUoB-20" vertex="1">
          <mxGeometry y="50" width="210" height="26" as="geometry" />
        </mxCell>
        <mxCell id="aJVCs53JZPM8vwfDpUoB-25" value="+ Back to startpage (L)" style="text;strokeColor=none;fillColor=none;align=left;verticalAlign=top;spacingLeft=4;spacingRight=4;overflow=hidden;rotatable=0;points=[[0,0.5],[1,0.5]];portConstraint=eastwest;" parent="aJVCs53JZPM8vwfDpUoB-20" vertex="1">
          <mxGeometry y="76" width="210" height="26" as="geometry" />
        </mxCell>
        <mxCell id="aJVCs53JZPM8vwfDpUoB-59" style="edgeStyle=orthogonalEdgeStyle;rounded=0;orthogonalLoop=1;jettySize=auto;html=1;" parent="aJVCs53JZPM8vwfDpUoB-20" source="aJVCs53JZPM8vwfDpUoB-22" target="aJVCs53JZPM8vwfDpUoB-22" edge="1">
          <mxGeometry relative="1" as="geometry" />
        </mxCell>
        <mxCell id="aJVCs53JZPM8vwfDpUoB-27" value="Register.html" style="swimlane;fontStyle=1;align=center;verticalAlign=top;childLayout=stackLayout;horizontal=1;startSize=26;horizontalStack=0;resizeParent=1;resizeParentMax=0;resizeLast=0;collapsible=1;marginBottom=0;" parent="1" vertex="1">
          <mxGeometry x="35" y="68.5" width="210" height="128" as="geometry" />
        </mxCell>
        <mxCell id="aJVCs53JZPM8vwfDpUoB-28" value="CONTENT: &#xa;&#xa;AboutUs&#xa;" style="text;strokeColor=none;fillColor=none;align=left;verticalAlign=top;spacingLeft=4;spacingRight=4;overflow=hidden;rotatable=0;points=[[0,0.5],[1,0.5]];portConstraint=eastwest;" parent="aJVCs53JZPM8vwfDpUoB-27" vertex="1">
          <mxGeometry y="26" width="210" height="24" as="geometry" />
        </mxCell>
        <mxCell id="aJVCs53JZPM8vwfDpUoB-29" value="+ Register-field (Customer/Provider)" style="text;strokeColor=none;fillColor=none;align=left;verticalAlign=top;spacingLeft=4;spacingRight=4;overflow=hidden;rotatable=0;points=[[0,0.5],[1,0.5]];portConstraint=eastwest;" parent="aJVCs53JZPM8vwfDpUoB-27" vertex="1">
          <mxGeometry y="50" width="210" height="26" as="geometry" />
        </mxCell>
        <mxCell id="aJVCs53JZPM8vwfDpUoB-31" value="+ Link to Login (L)" style="text;strokeColor=none;fillColor=none;align=left;verticalAlign=top;spacingLeft=4;spacingRight=4;overflow=hidden;rotatable=0;points=[[0,0.5],[1,0.5]];portConstraint=eastwest;" parent="aJVCs53JZPM8vwfDpUoB-27" vertex="1">
          <mxGeometry y="76" width="210" height="26" as="geometry" />
        </mxCell>
        <mxCell id="aJVCs53JZPM8vwfDpUoB-30" value="+ Back to startpage (L)" style="text;strokeColor=none;fillColor=none;align=left;verticalAlign=top;spacingLeft=4;spacingRight=4;overflow=hidden;rotatable=0;points=[[0,0.5],[1,0.5]];portConstraint=eastwest;" parent="aJVCs53JZPM8vwfDpUoB-27" vertex="1">
          <mxGeometry y="102" width="210" height="26" as="geometry" />
        </mxCell>
        <mxCell id="aJVCs53JZPM8vwfDpUoB-32" style="edgeStyle=orthogonalEdgeStyle;rounded=0;orthogonalLoop=1;jettySize=auto;html=1;entryX=-0.003;entryY=0.209;entryDx=0;entryDy=0;entryPerimeter=0;" parent="1" source="aJVCs53JZPM8vwfDpUoB-31" target="aJVCs53JZPM8vwfDpUoB-20" edge="1">
          <mxGeometry relative="1" as="geometry" />
        </mxCell>
        <mxCell id="aJVCs53JZPM8vwfDpUoB-33" style="edgeStyle=orthogonalEdgeStyle;rounded=0;orthogonalLoop=1;jettySize=auto;html=1;" parent="1" source="aJVCs53JZPM8vwfDpUoB-14" target="aJVCs53JZPM8vwfDpUoB-27" edge="1">
          <mxGeometry relative="1" as="geometry">
            <mxPoint x="-25.000000000000455" y="50.5" as="targetPoint" />
          </mxGeometry>
        </mxCell>
        <mxCell id="aJVCs53JZPM8vwfDpUoB-74" style="edgeStyle=orthogonalEdgeStyle;rounded=0;orthogonalLoop=1;jettySize=auto;html=1;entryX=0.012;entryY=0.156;entryDx=0;entryDy=0;entryPerimeter=0;" parent="1" source="aJVCs53JZPM8vwfDpUoB-35" target="aJVCs53JZPM8vwfDpUoB-62" edge="1">
          <mxGeometry relative="1" as="geometry" />
        </mxCell>
        <mxCell id="aJVCs53JZPM8vwfDpUoB-76" style="edgeStyle=orthogonalEdgeStyle;rounded=0;orthogonalLoop=1;jettySize=auto;html=1;entryX=-0.005;entryY=0.123;entryDx=0;entryDy=0;entryPerimeter=0;" parent="1" source="aJVCs53JZPM8vwfDpUoB-35" target="aJVCs53JZPM8vwfDpUoB-67" edge="1">
          <mxGeometry relative="1" as="geometry" />
        </mxCell>
        <mxCell id="aJVCs53JZPM8vwfDpUoB-35" value="CUSTOMER / PROVIDER?" style="swimlane;fontStyle=1;align=center;verticalAlign=top;childLayout=stackLayout;horizontal=1;startSize=26;horizontalStack=0;resizeParent=1;resizeParentMax=0;resizeLast=0;collapsible=1;marginBottom=0;" parent="1" vertex="1">
          <mxGeometry x="410" y="-153.5" width="210" height="23.5" as="geometry" />
        </mxCell>
        <object label="" id="aJVCs53JZPM8vwfDpUoB-40">
          <mxCell style="edgeStyle=orthogonalEdgeStyle;rounded=0;orthogonalLoop=1;jettySize=auto;html=1;entryX=0.008;entryY=0.123;entryDx=0;entryDy=0;entryPerimeter=0;startArrow=none;" parent="1" source="aJVCs53JZPM8vwfDpUoB-41" target="aJVCs53JZPM8vwfDpUoB-35" edge="1">
            <mxGeometry relative="1" as="geometry">
              <Array as="points">
                <mxPoint x="395" y="-120" />
                <mxPoint x="395" y="-150" />
              </Array>
            </mxGeometry>
          </mxCell>
        </object>
        <mxCell id="aJVCs53JZPM8vwfDpUoB-41" value="IF: logged in" style="text;html=1;resizable=0;autosize=1;align=center;verticalAlign=middle;points=[];fillColor=none;strokeColor=none;rounded=0;" parent="1" vertex="1">
          <mxGeometry x="295" y="-130" width="80" height="20" as="geometry" />
        </mxCell>
        <mxCell id="aJVCs53JZPM8vwfDpUoB-42" value="" style="edgeStyle=orthogonalEdgeStyle;rounded=0;orthogonalLoop=1;jettySize=auto;html=1;entryX=0.008;entryY=0.123;entryDx=0;entryDy=0;entryPerimeter=0;endArrow=none;" parent="1" source="aJVCs53JZPM8vwfDpUoB-11" target="aJVCs53JZPM8vwfDpUoB-41" edge="1">
          <mxGeometry relative="1" as="geometry">
            <mxPoint x="225.00000000000045" y="-17" as="sourcePoint" />
            <mxPoint x="586.6799999999998" y="-45.45400000000018" as="targetPoint" />
          </mxGeometry>
        </mxCell>
        <mxCell id="aJVCs53JZPM8vwfDpUoB-44" style="edgeStyle=orthogonalEdgeStyle;rounded=0;orthogonalLoop=1;jettySize=auto;html=1;" parent="1" source="aJVCs53JZPM8vwfDpUoB-14" target="aJVCs53JZPM8vwfDpUoB-20" edge="1">
          <mxGeometry relative="1" as="geometry">
            <mxPoint x="300" y="10" as="targetPoint" />
            <Array as="points">
              <mxPoint x="145" y="40" />
              <mxPoint x="310" y="40" />
              <mxPoint x="310" y="51" />
            </Array>
          </mxGeometry>
        </mxCell>
        <mxCell id="aJVCs53JZPM8vwfDpUoB-47" value="IF: success " style="text;html=1;resizable=0;autosize=1;align=center;verticalAlign=middle;points=[];fillColor=none;strokeColor=none;rounded=0;" parent="1" vertex="1">
          <mxGeometry x="360" y="-40" width="80" height="20" as="geometry" />
        </mxCell>
        <mxCell id="aJVCs53JZPM8vwfDpUoB-48" value="" style="edgeStyle=orthogonalEdgeStyle;rounded=0;orthogonalLoop=1;jettySize=auto;html=1;entryX=0;entryY=0.25;entryDx=0;entryDy=0;endArrow=none;" parent="1" source="aJVCs53JZPM8vwfDpUoB-20" target="aJVCs53JZPM8vwfDpUoB-47" edge="1">
          <mxGeometry relative="1" as="geometry">
            <mxPoint x="534.9999999999995" y="113" as="sourcePoint" />
            <mxPoint x="624.9999999999995" y="4.25" as="targetPoint" />
            <Array as="points">
              <mxPoint x="350" y="-35" />
            </Array>
          </mxGeometry>
        </mxCell>
        <mxCell id="aJVCs53JZPM8vwfDpUoB-60" value="&lt;div&gt;IF NOT: success&lt;/div&gt;&lt;div&gt;&lt;br&gt; &lt;/div&gt;" style="text;html=1;resizable=0;autosize=1;align=center;verticalAlign=middle;points=[];fillColor=none;strokeColor=none;rounded=0;" parent="1" vertex="1">
          <mxGeometry x="540" y="86" width="100" height="30" as="geometry" />
        </mxCell>
        <mxCell id="aJVCs53JZPM8vwfDpUoB-62" value="HomeP.html" style="swimlane;fontStyle=1;align=center;verticalAlign=top;childLayout=stackLayout;horizontal=1;startSize=26;horizontalStack=0;resizeParent=1;resizeParentMax=0;resizeLast=0;collapsible=1;marginBottom=0;" parent="1" vertex="1">
          <mxGeometry x="670" y="-143" width="210" height="128" as="geometry" />
        </mxCell>
        <mxCell id="aJVCs53JZPM8vwfDpUoB-63" value="CONTENT: &#xa;&#xa;AboutUs&#xa;" style="text;strokeColor=none;fillColor=none;align=left;verticalAlign=top;spacingLeft=4;spacingRight=4;overflow=hidden;rotatable=0;points=[[0,0.5],[1,0.5]];portConstraint=eastwest;" parent="aJVCs53JZPM8vwfDpUoB-62" vertex="1">
          <mxGeometry y="26" width="210" height="24" as="geometry" />
        </mxCell>
        <mxCell id="aJVCs53JZPM8vwfDpUoB-64" value="+ Requests" style="text;strokeColor=none;fillColor=none;align=left;verticalAlign=top;spacingLeft=4;spacingRight=4;overflow=hidden;rotatable=0;points=[[0,0.5],[1,0.5]];portConstraint=eastwest;" parent="aJVCs53JZPM8vwfDpUoB-62" vertex="1">
          <mxGeometry y="50" width="210" height="26" as="geometry" />
        </mxCell>
        <mxCell id="aJVCs53JZPM8vwfDpUoB-73" value="+ Profile" style="text;strokeColor=none;fillColor=none;align=left;verticalAlign=top;spacingLeft=4;spacingRight=4;overflow=hidden;rotatable=0;points=[[0,0.5],[1,0.5]];portConstraint=eastwest;" parent="aJVCs53JZPM8vwfDpUoB-62" vertex="1">
          <mxGeometry y="76" width="210" height="26" as="geometry" />
        </mxCell>
        <mxCell id="aJVCs53JZPM8vwfDpUoB-65" value="+ Logout" style="text;strokeColor=none;fillColor=none;align=left;verticalAlign=top;spacingLeft=4;spacingRight=4;overflow=hidden;rotatable=0;points=[[0,0.5],[1,0.5]];portConstraint=eastwest;" parent="aJVCs53JZPM8vwfDpUoB-62" vertex="1">
          <mxGeometry y="102" width="210" height="26" as="geometry" />
        </mxCell>
        <mxCell id="aJVCs53JZPM8vwfDpUoB-67" value="HomeC.html" style="swimlane;fontStyle=1;align=center;verticalAlign=top;childLayout=stackLayout;horizontal=1;startSize=26;horizontalStack=0;resizeParent=1;resizeParentMax=0;resizeLast=0;collapsible=1;marginBottom=0;" parent="1" vertex="1">
          <mxGeometry x="670" y="15" width="210" height="128" as="geometry" />
        </mxCell>
        <mxCell id="aJVCs53JZPM8vwfDpUoB-68" value="CONTENT: &#xa;&#xa;AboutUs&#xa;" style="text;strokeColor=none;fillColor=none;align=left;verticalAlign=top;spacingLeft=4;spacingRight=4;overflow=hidden;rotatable=0;points=[[0,0.5],[1,0.5]];portConstraint=eastwest;" parent="aJVCs53JZPM8vwfDpUoB-67" vertex="1">
          <mxGeometry y="26" width="210" height="24" as="geometry" />
        </mxCell>
        <mxCell id="aJVCs53JZPM8vwfDpUoB-69" value="+ Orders" style="text;strokeColor=none;fillColor=none;align=left;verticalAlign=top;spacingLeft=4;spacingRight=4;overflow=hidden;rotatable=0;points=[[0,0.5],[1,0.5]];portConstraint=eastwest;" parent="aJVCs53JZPM8vwfDpUoB-67" vertex="1">
          <mxGeometry y="50" width="210" height="26" as="geometry" />
        </mxCell>
        <mxCell id="aJVCs53JZPM8vwfDpUoB-70" value="+ Profil" style="text;strokeColor=none;fillColor=none;align=left;verticalAlign=top;spacingLeft=4;spacingRight=4;overflow=hidden;rotatable=0;points=[[0,0.5],[1,0.5]];portConstraint=eastwest;" parent="aJVCs53JZPM8vwfDpUoB-67" vertex="1">
          <mxGeometry y="76" width="210" height="26" as="geometry" />
        </mxCell>
        <mxCell id="aJVCs53JZPM8vwfDpUoB-72" value="+ Logout" style="text;strokeColor=none;fillColor=none;align=left;verticalAlign=top;spacingLeft=4;spacingRight=4;overflow=hidden;rotatable=0;points=[[0,0.5],[1,0.5]];portConstraint=eastwest;" parent="aJVCs53JZPM8vwfDpUoB-67" vertex="1">
          <mxGeometry y="102" width="210" height="26" as="geometry" />
        </mxCell>
        <mxCell id="7rNRdAVTTGIjoaI1DCU4-4" value=":Questionnaire" style="shape=umlLifeline;perimeter=lifelinePerimeter;whiteSpace=wrap;html=1;container=1;collapsible=0;recursiveResize=0;outlineConnect=0;" vertex="1" parent="1">
          <mxGeometry x="1150" y="301" width="100" height="119" as="geometry" />
        </mxCell>
        <mxCell id="7rNRdAVTTGIjoaI1DCU4-5" value="" style="html=1;points=[];perimeter=orthogonalPerimeter;" vertex="1" parent="7rNRdAVTTGIjoaI1DCU4-4">
          <mxGeometry x="45" y="79" width="10" height="41" as="geometry" />
        </mxCell>
        <mxCell id="7rNRdAVTTGIjoaI1DCU4-6" value=":Order" style="shape=umlLifeline;perimeter=lifelinePerimeter;whiteSpace=wrap;html=1;container=1;collapsible=0;recursiveResize=0;outlineConnect=0;" vertex="1" parent="1">
          <mxGeometry x="1330" y="301" width="100" height="310" as="geometry" />
        </mxCell>
        <mxCell id="7rNRdAVTTGIjoaI1DCU4-7" value="" style="html=1;points=[];perimeter=orthogonalPerimeter;" vertex="1" parent="7rNRdAVTTGIjoaI1DCU4-6">
          <mxGeometry x="46" y="186" width="10" height="124" as="geometry" />
        </mxCell>
        <mxCell id="7rNRdAVTTGIjoaI1DCU4-8" value=":Provider" style="shape=umlLifeline;perimeter=lifelinePerimeter;whiteSpace=wrap;html=1;container=1;collapsible=0;recursiveResize=0;outlineConnect=0;" vertex="1" parent="1">
          <mxGeometry x="1530" y="301" width="100" height="470" as="geometry" />
        </mxCell>
        <mxCell id="7rNRdAVTTGIjoaI1DCU4-9" value="" style="html=1;points=[];perimeter=orthogonalPerimeter;" vertex="1" parent="7rNRdAVTTGIjoaI1DCU4-8">
          <mxGeometry x="45" y="94.5" width="10" height="10" as="geometry" />
        </mxCell>
        <mxCell id="7rNRdAVTTGIjoaI1DCU4-10" value="" style="html=1;points=[];perimeter=orthogonalPerimeter;" vertex="1" parent="7rNRdAVTTGIjoaI1DCU4-8">
          <mxGeometry x="45" y="299" width="10" height="71" as="geometry" />
        </mxCell>
        <mxCell id="7rNRdAVTTGIjoaI1DCU4-11" value="send" style="html=1;verticalAlign=bottom;endArrow=block;rounded=0;entryX=0.2;entryY=0;entryDx=0;entryDy=0;entryPerimeter=0;exitX=1.067;exitY=0.045;exitDx=0;exitDy=0;exitPerimeter=0;" edge="1" parent="1" source="7rNRdAVTTGIjoaI1DCU4-20" target="7rNRdAVTTGIjoaI1DCU4-5">
          <mxGeometry width="80" relative="1" as="geometry">
            <mxPoint x="1035" y="380" as="sourcePoint" />
            <mxPoint x="1260" y="580" as="targetPoint" />
          </mxGeometry>
        </mxCell>
        <mxCell id="7rNRdAVTTGIjoaI1DCU4-12" value="create" style="html=1;verticalAlign=bottom;endArrow=block;rounded=0;exitX=1.1;exitY=0.976;exitDx=0;exitDy=0;exitPerimeter=0;" edge="1" parent="1" source="7rNRdAVTTGIjoaI1DCU4-5">
          <mxGeometry width="80" relative="1" as="geometry">
            <mxPoint x="1205" y="488.991" as="sourcePoint" />
            <mxPoint x="1380.5" y="488.991" as="targetPoint" />
          </mxGeometry>
        </mxCell>
        <mxCell id="7rNRdAVTTGIjoaI1DCU4-13" value="retrieve data" style="html=1;verticalAlign=bottom;endArrow=block;rounded=0;entryX=1.1;entryY=0.39;entryDx=0;entryDy=0;entryPerimeter=0;dashed=1;" edge="1" parent="1" target="7rNRdAVTTGIjoaI1DCU4-5">
          <mxGeometry x="-0.1444" width="80" relative="1" as="geometry">
            <mxPoint x="1580" y="396" as="sourcePoint" />
            <mxPoint x="1340" y="520" as="targetPoint" />
            <mxPoint as="offset" />
          </mxGeometry>
        </mxCell>
        <mxCell id="7rNRdAVTTGIjoaI1DCU4-14" value="propose" style="html=1;verticalAlign=bottom;endArrow=open;dashed=1;endSize=8;rounded=0;exitX=-0.1;exitY=0.932;exitDx=0;exitDy=0;exitPerimeter=0;entryX=0.8;entryY=-0.011;entryDx=0;entryDy=0;entryPerimeter=0;" edge="1" parent="1" target="7rNRdAVTTGIjoaI1DCU4-21">
          <mxGeometry relative="1" as="geometry">
            <mxPoint x="1375" y="529.998" as="sourcePoint" />
            <mxPoint x="1036" y="531.9899999999998" as="targetPoint" />
          </mxGeometry>
        </mxCell>
        <mxCell id="7rNRdAVTTGIjoaI1DCU4-15" value="decide" style="html=1;verticalAlign=bottom;endArrow=block;rounded=0;entryX=0.4;entryY=0.75;entryDx=0;entryDy=0;entryPerimeter=0;exitX=1.133;exitY=0.343;exitDx=0;exitDy=0;exitPerimeter=0;" edge="1" parent="1" source="7rNRdAVTTGIjoaI1DCU4-21" target="7rNRdAVTTGIjoaI1DCU4-7">
          <mxGeometry width="80" relative="1" as="geometry">
            <mxPoint x="1036" y="580" as="sourcePoint" />
            <mxPoint x="1260" y="690" as="targetPoint" />
          </mxGeometry>
        </mxCell>
        <mxCell id="7rNRdAVTTGIjoaI1DCU4-16" value="commision" style="html=1;verticalAlign=bottom;endArrow=block;rounded=0;entryX=0;entryY=0.025;entryDx=0;entryDy=0;entryPerimeter=0;exitX=1;exitY=0.911;exitDx=0;exitDy=0;exitPerimeter=0;" edge="1" parent="1" source="7rNRdAVTTGIjoaI1DCU4-7" target="7rNRdAVTTGIjoaI1DCU4-10">
          <mxGeometry width="80" relative="1" as="geometry">
            <mxPoint x="1390" y="600" as="sourcePoint" />
            <mxPoint x="1576" y="600" as="targetPoint" />
          </mxGeometry>
        </mxCell>
        <mxCell id="7rNRdAVTTGIjoaI1DCU4-17" value="contact" style="html=1;verticalAlign=bottom;endArrow=open;dashed=1;endSize=8;rounded=0;exitX=-0.4;exitY=0.845;exitDx=0;exitDy=0;exitPerimeter=0;" edge="1" parent="1" source="7rNRdAVTTGIjoaI1DCU4-10">
          <mxGeometry relative="1" as="geometry">
            <mxPoint x="1310" y="700" as="sourcePoint" />
            <mxPoint x="1040" y="660" as="targetPoint" />
          </mxGeometry>
        </mxCell>
        <mxCell id="7rNRdAVTTGIjoaI1DCU4-18" value="" style="rounded=0;whiteSpace=wrap;html=1;fillColor=#ffe6cc;strokeColor=#d79b00;" vertex="1" parent="1">
          <mxGeometry x="970" y="230" width="710" height="40" as="geometry" />
        </mxCell>
        <mxCell id="7rNRdAVTTGIjoaI1DCU4-1" value="Sequence Diagram" style="text;strokeColor=none;fillColor=none;html=1;fontSize=24;fontStyle=1;verticalAlign=middle;align=center;fontColor=#000000;" vertex="1" parent="1">
          <mxGeometry x="1167.5" y="230" width="315" height="40" as="geometry" />
        </mxCell>
        <mxCell id="7rNRdAVTTGIjoaI1DCU4-19" value=":Customer" style="shape=umlLifeline;perimeter=lifelinePerimeter;whiteSpace=wrap;html=1;container=1;collapsible=0;recursiveResize=0;outlineConnect=0;" vertex="1" parent="1">
          <mxGeometry x="980" y="301" width="100" height="789" as="geometry" />
        </mxCell>
        <mxCell id="7rNRdAVTTGIjoaI1DCU4-20" value="" style="html=1;points=[];perimeter=orthogonalPerimeter;" vertex="1" parent="7rNRdAVTTGIjoaI1DCU4-19">
          <mxGeometry x="45" y="79" width="10" height="11" as="geometry" />
        </mxCell>
        <mxCell id="7rNRdAVTTGIjoaI1DCU4-21" value="" style="html=1;points=[];perimeter=orthogonalPerimeter;" vertex="1" parent="7rNRdAVTTGIjoaI1DCU4-19">
          <mxGeometry x="46" y="230.99" width="10" height="139.01" as="geometry" />
        </mxCell>
      </root>
    </mxGraphModel>
  </diagram>
</mxfile>
